<svg xmlns="http://www.w3.org/2000/svg" xmlns:xlink="http://www.w3.org/1999/xlink" width="1001" zoomAndPan="magnify" viewBox="0 0 750.75 126.749998" height="169" preserveAspectRatio="xMidYMid meet" version="1.0"><defs><g/><clipPath id="3d6ae5690f"><path d="M 21 105 L 36 105 L 36 115.820312 L 21 115.820312 Z M 21 105 " clip-rule="nonzero"/></clipPath><clipPath id="03543eccc4"><path d="M 78 105 L 93 105 L 93 115.820312 L 78 115.820312 Z M 78 105 " clip-rule="nonzero"/></clipPath><clipPath id="f7e2bb4539"><path d="M 11 10.277344 L 103 10.277344 L 103 102 L 11 102 Z M 11 10.277344 " clip-rule="nonzero"/></clipPath><clipPath id="79f128d8e0"><path d="M 0.613281 37 L 9 37 L 9 63 L 0.613281 63 Z M 0.613281 37 " clip-rule="nonzero"/></clipPath><clipPath id="6f30d12414"><path d="M 105 37 L 113.640625 37 L 113.640625 63 L 105 63 Z M 105 37 " clip-rule="nonzero"/></clipPath></defs><g clip-path="url(#3d6ae5690f)"><path fill="#33432d" d="M 21.605469 105.089844 L 21.605469 111.191406 C 21.605469 113.78125 23.707031 115.882812 26.296875 115.882812 L 30.988281 115.882812 C 33.582031 115.882812 35.679688 113.78125 35.679688 111.191406 L 35.679688 105.089844 Z M 21.605469 105.089844 " fill-opacity="1" fill-rule="nonzero"/></g><g clip-path="url(#03543eccc4)"><path fill="#33432d" d="M 78.488281 105.089844 L 78.488281 111.191406 C 78.488281 113.78125 80.589844 115.882812 83.179688 115.882812 L 87.871094 115.882812 C 90.464844 115.882812 92.5625 113.78125 92.5625 111.191406 L 92.5625 105.089844 Z M 78.488281 105.089844 " fill-opacity="1" fill-rule="nonzero"/></g><g clip-path="url(#f7e2bb4539)"><path fill="#33432d" d="M 86.195312 10.335938 L 27.976562 10.335938 C 18.789062 10.335938 11.34375 17.78125 11.34375 26.96875 L 11.34375 95.566406 C 11.34375 98.925781 14.070312 101.652344 17.429688 101.652344 L 96.742188 101.652344 C 100.101562 101.652344 102.828125 98.925781 102.828125 95.566406 L 102.828125 26.96875 C 102.828125 17.78125 95.382812 10.335938 86.195312 10.335938 Z M 26.199219 90.234375 C 22.660156 90.234375 19.789062 87.363281 19.789062 83.824219 C 19.789062 80.28125 22.660156 77.410156 26.199219 77.410156 C 29.742188 77.410156 32.613281 80.28125 32.613281 83.824219 C 32.613281 87.363281 29.742188 90.234375 26.199219 90.234375 Z M 76.996094 89.945312 L 39.464844 89.945312 C 38.242188 89.945312 37.25 88.957031 37.25 87.734375 C 37.25 86.511719 38.242188 85.519531 39.464844 85.519531 L 76.996094 85.519531 C 78.21875 85.519531 79.207031 86.511719 79.207031 87.734375 C 79.207031 88.957031 78.21875 89.945312 76.996094 89.945312 Z M 76.996094 82.128906 L 39.464844 82.128906 C 38.242188 82.128906 37.25 81.136719 37.25 79.914062 C 37.25 78.691406 38.242188 77.703125 39.464844 77.703125 L 76.996094 77.703125 C 78.21875 77.703125 79.207031 78.691406 79.207031 79.914062 C 79.207031 81.136719 78.21875 82.128906 76.996094 82.128906 Z M 87.972656 90.234375 C 84.429688 90.234375 81.558594 87.363281 81.558594 83.824219 C 81.558594 80.28125 84.429688 77.410156 87.972656 77.410156 C 91.511719 77.410156 94.382812 80.28125 94.382812 83.824219 C 94.382812 87.363281 91.511719 90.234375 87.972656 90.234375 Z M 94.382812 54.230469 C 94.382812 60.46875 89.328125 65.523438 83.089844 65.523438 L 31.082031 65.523438 C 24.84375 65.523438 19.789062 60.46875 19.789062 54.230469 L 19.789062 29.59375 C 19.789062 23.359375 24.84375 18.304688 31.082031 18.304688 L 83.089844 18.304688 C 89.328125 18.304688 94.382812 23.359375 94.382812 29.59375 Z M 94.382812 54.230469 " fill-opacity="1" fill-rule="nonzero"/></g><path fill="#33432d" d="M 67.003906 62.085938 C 67.128906 58.613281 69.972656 55.835938 73.476562 55.835938 C 76.980469 55.835938 79.828125 58.613281 79.953125 62.085938 L 84.652344 62.085938 C 84.527344 56.019531 79.574219 51.140625 73.476562 51.140625 C 67.382812 51.140625 62.425781 56.019531 62.300781 62.085938 Z M 67.003906 62.085938 " fill-opacity="1" fill-rule="nonzero"/><g clip-path="url(#79f128d8e0)"><path fill="#33432d" d="M 8.292969 58.253906 C 8.292969 60.371094 6.578125 62.085938 4.464844 62.085938 C 2.347656 62.085938 0.632812 60.371094 0.632812 58.253906 L 0.632812 40.898438 C 0.632812 38.78125 2.347656 37.066406 4.464844 37.066406 C 6.578125 37.066406 8.292969 38.78125 8.292969 40.898438 Z M 8.292969 58.253906 " fill-opacity="1" fill-rule="nonzero"/></g><g clip-path="url(#6f30d12414)"><path fill="#33432d" d="M 113.539062 58.253906 C 113.539062 60.371094 111.824219 62.085938 109.707031 62.085938 C 107.589844 62.085938 105.875 60.371094 105.875 58.253906 L 105.875 40.898438 C 105.875 38.78125 107.589844 37.066406 109.707031 37.066406 C 111.824219 37.066406 113.539062 38.78125 113.539062 40.898438 Z M 113.539062 58.253906 " fill-opacity="1" fill-rule="nonzero"/></g><g fill="#f56551" fill-opacity="1"><g transform="translate(135.392035, 90.832061)"><g><path d="M 42.703125 1.03125 C 40.597656 1.03125 38.773438 -1.65625 37.234375 -7.03125 C 36.640625 -9.082031 35.898438 -12.671875 35.015625 -17.796875 C 32.691406 -17.472656 29.648438 -16.90625 25.890625 -16.09375 L 16.8125 -14.203125 C 15.664062 -11.222656 13.71875 -6.863281 10.96875 -1.125 C 10.238281 0.144531 9.25 0.78125 8 0.78125 C 7.082031 0.78125 6.265625 0.453125 5.546875 -0.203125 C 4.828125 -0.867188 4.46875 -1.691406 4.46875 -2.671875 C 4.46875 -3.753906 6.1875 -7.90625 9.625 -15.125 C 9.238281 -15.71875 9.046875 -16.40625 9.046875 -17.1875 C 9.046875 -19.03125 10.164062 -20.210938 12.40625 -20.734375 C 15 -25.609375 18.273438 -31.207031 22.234375 -37.53125 C 27.628906 -46.164062 30.988281 -50.484375 32.3125 -50.484375 C 34.113281 -50.484375 35.34375 -49.226562 36 -46.71875 L 38.15625 -35.25 L 43.25 -11.515625 L 45.1875 -6.109375 C 45.851562 -4.265625 46.1875 -3.035156 46.1875 -2.421875 C 46.1875 -1.441406 45.832031 -0.625 45.125 0.03125 C 44.414062 0.695312 43.609375 1.03125 42.703125 1.03125 Z M 30.640625 -38.015625 L 20.875 -22.265625 C 23.625 -22.972656 27.800781 -23.828125 33.40625 -24.828125 Z M 30.640625 -38.015625 "/></g></g></g><g fill="#f56551" fill-opacity="1"><g transform="translate(186.549445, 90.832061)"><g><path d="M 32.6875 -42.5625 C 31.226562 -42.5625 29.394531 -42.707031 27.1875 -43 L 21.6875 -43.71875 C 21.164062 -37.09375 20.90625 -30.765625 20.90625 -24.734375 C 20.90625 -23.140625 20.945312 -21.164062 21.03125 -18.8125 C 21.125 -16.46875 21.171875 -14.5 21.171875 -12.90625 C 21.171875 -10.769531 21.09375 -8.828125 20.9375 -7.078125 L 31.703125 -7.203125 C 32.648438 -7.203125 33.445312 -6.863281 34.09375 -6.1875 C 34.75 -5.519531 35.078125 -4.695312 35.078125 -3.71875 C 35.078125 -2.71875 34.75 -1.878906 34.09375 -1.203125 C 33.445312 -0.535156 32.648438 -0.203125 31.703125 -0.203125 C 30.421875 -0.203125 28.503906 -0.171875 25.953125 -0.109375 C 23.410156 -0.0546875 21.5 -0.03125 20.21875 -0.03125 C 18.71875 -0.03125 16.46875 0.175781 13.46875 0.59375 C 10.476562 1.019531 8.21875 1.234375 6.6875 1.234375 C 5.738281 1.234375 4.9375 0.894531 4.28125 0.21875 C 3.632812 -0.445312 3.3125 -1.269531 3.3125 -2.25 C 3.3125 -3.226562 3.632812 -4.054688 4.28125 -4.734375 C 4.9375 -5.421875 5.738281 -5.765625 6.6875 -5.765625 C 8.175781 -5.765625 10.625 -6.003906 14.03125 -6.484375 C 14.257812 -8.328125 14.375 -10.4375 14.375 -12.8125 C 14.375 -14.382812 14.300781 -16.300781 14.15625 -18.5625 C 14.007812 -20.832031 13.9375 -22.738281 13.9375 -24.28125 C 13.9375 -29.539062 14.253906 -36.113281 14.890625 -44 L 10.453125 -43.859375 L 6.015625 -43.75 C 5.035156 -43.75 4.210938 -44.078125 3.546875 -44.734375 C 2.890625 -45.398438 2.5625 -46.242188 2.5625 -47.265625 C 2.5625 -49.390625 3.628906 -50.550781 5.765625 -50.75 C 7.617188 -50.9375 11.070312 -51.03125 16.125 -51.03125 C 20.65625 -51.03125 26.335938 -50.539062 33.171875 -49.5625 C 35.191406 -49.269531 36.203125 -48.050781 36.203125 -45.90625 C 36.203125 -44.832031 35.816406 -43.976562 35.046875 -43.34375 C 34.359375 -42.820312 33.570312 -42.5625 32.6875 -42.5625 Z M 32.6875 -42.5625 "/></g></g></g><g fill="#f56551" fill-opacity="1"><g transform="translate(224.763826, 90.832061)"><g><path d="M 23.1875 -16.21875 C 20.09375 -15.90625 14.582031 -15.75 6.65625 -15.75 C 4.75 -15.75 3.796875 -16.632812 3.796875 -18.40625 C 3.796875 -20.1875 4.75 -21.078125 6.65625 -21.078125 C 8.457031 -21.078125 11.15625 -21.15625 14.75 -21.3125 C 18.351562 -21.46875 21.050781 -21.546875 22.84375 -21.546875 C 24.875 -21.546875 25.890625 -20.660156 25.890625 -18.890625 C 25.890625 -17.316406 24.988281 -16.425781 23.1875 -16.21875 Z M 23.1875 -16.21875 "/></g></g></g><g fill="#f56551" fill-opacity="1"><g transform="translate(253.894181, 90.832061)"><g><path d="M 46.515625 -43.140625 C 44.835938 -43.140625 42.242188 -43.273438 38.734375 -43.546875 C 35.316406 -43.796875 32.722656 -43.910156 30.953125 -43.890625 L 28.515625 -43.890625 C 28.585938 -40.742188 28.894531 -35.644531 29.4375 -28.59375 C 29.9375 -22.007812 30.1875 -16.894531 30.1875 -13.25 C 30.1875 -12.457031 30.265625 -11.25 30.421875 -9.625 C 30.585938 -8.007812 30.671875 -6.796875 30.671875 -5.984375 C 30.671875 -4.429688 30.421875 -3.097656 29.921875 -1.984375 C 29.285156 -0.484375 28.296875 0.265625 26.953125 0.265625 C 26.035156 0.265625 25.210938 -0.0507812 24.484375 -0.6875 C 23.753906 -1.320312 23.390625 -2.140625 23.390625 -3.140625 C 23.390625 -3.484375 23.445312 -3.992188 23.5625 -4.671875 C 23.675781 -5.359375 23.734375 -5.875 23.734375 -6.21875 C 23.734375 -7.332031 23.660156 -9.003906 23.515625 -11.234375 C 23.367188 -13.460938 23.296875 -15.148438 23.296875 -16.296875 C 23.296875 -19.546875 23.035156 -24.125 22.515625 -30.03125 C 21.960938 -36.40625 21.65625 -40.976562 21.59375 -43.75 L 18.484375 -43.71875 C 13.492188 -43.71875 9.578125 -44.082031 6.734375 -44.8125 C 4.890625 -45.289062 3.96875 -46.414062 3.96875 -48.1875 C 3.96875 -49.125 4.257812 -49.945312 4.84375 -50.65625 C 5.53125 -51.445312 6.410156 -51.8125 7.484375 -51.75 C 8.273438 -51.695312 10.097656 -51.488281 12.953125 -51.125 C 15.222656 -50.851562 17.066406 -50.71875 18.484375 -50.71875 C 19.847656 -50.71875 21.914062 -50.742188 24.6875 -50.796875 C 27.46875 -50.859375 29.539062 -50.890625 30.90625 -50.890625 C 32.664062 -50.890625 35.269531 -50.765625 38.71875 -50.515625 C 42.164062 -50.265625 44.765625 -50.140625 46.515625 -50.140625 C 47.492188 -50.140625 48.3125 -49.800781 48.96875 -49.125 C 49.632812 -48.457031 49.96875 -47.625 49.96875 -46.625 C 49.96875 -45.644531 49.632812 -44.816406 48.96875 -44.140625 C 48.3125 -43.472656 47.492188 -43.140625 46.515625 -43.140625 Z M 46.515625 -43.140625 "/></g></g></g><g fill="#f56551" fill-opacity="1"><g transform="translate(301.431642, 90.832061)"><g><path d="M 31.328125 -25.234375 C 31.160156 -22.390625 30.019531 -20.96875 27.90625 -20.96875 C 25.945312 -20.96875 24.96875 -22.097656 24.96875 -24.359375 C 24.96875 -24.785156 24.929688 -25.582031 24.859375 -26.75 L 24.765625 -29.609375 C 21.160156 -29.179688 18.28125 -28.171875 16.125 -26.578125 C 14.09375 -25.097656 12.40625 -22.863281 11.0625 -19.875 L 11.140625 -1.15625 C 11.140625 1.132812 10.007812 2.28125 7.75 2.28125 C 5.75 2.28125 4.75 1.132812 4.75 -1.15625 L 4.75 -25.140625 C 4.75 -25.890625 4.773438 -27.015625 4.828125 -28.515625 C 4.890625 -30.023438 4.921875 -31.15625 4.921875 -31.90625 C 4.921875 -34.207031 5.921875 -35.359375 7.921875 -35.359375 C 10.148438 -35.359375 11.28125 -33.46875 11.3125 -29.6875 C 15.675781 -33.894531 20.523438 -36 25.859375 -36 C 27.703125 -36 29.078125 -35.300781 29.984375 -33.90625 C 30.898438 -32.519531 31.359375 -30.429688 31.359375 -27.640625 C 31.359375 -26.453125 31.347656 -25.648438 31.328125 -25.234375 Z M 31.328125 -25.234375 "/></g></g></g><g fill="#f56551" fill-opacity="1"><g transform="translate(335.035709, 90.832061)"><g><path d="M 31.421875 2.25 C 30.992188 2.25 30.207031 1.75 29.0625 0.75 C 28.039062 -0.1875 27.28125 -1.015625 26.78125 -1.734375 C 24.59375 -0.554688 22.664062 0.332031 21 0.9375 C 19.34375 1.539062 17.957031 1.84375 16.84375 1.84375 C 11.507812 1.84375 7.625 0.335938 5.1875 -2.671875 C 2.882812 -5.492188 1.734375 -9.816406 1.734375 -15.640625 C 1.734375 -21.148438 3.628906 -25.863281 7.421875 -29.78125 C 11.210938 -33.695312 15.738281 -35.65625 21 -35.65625 C 22.988281 -35.65625 25.210938 -35.144531 27.671875 -34.125 C 30.765625 -32.84375 32.3125 -31.304688 32.3125 -29.515625 C 32.3125 -28.898438 32.082031 -28.351562 31.625 -27.875 C 31.394531 -27.007812 31.21875 -25.582031 31.09375 -23.59375 C 30.96875 -21.613281 30.894531 -19.078125 30.875 -15.984375 C 30.851562 -13.160156 31.046875 -10.929688 31.453125 -9.296875 C 31.679688 -8.285156 32.398438 -6.28125 33.609375 -3.28125 C 33.765625 -2.875 34.023438 -2.269531 34.390625 -1.46875 L 34.59375 -0.890625 C 34.59375 0.0234375 34.273438 0.773438 33.640625 1.359375 C 33.003906 1.953125 32.265625 2.25 31.421875 2.25 Z M 24.3125 -21.484375 C 24.3125 -22.460938 24.375 -23.523438 24.5 -24.671875 C 24.632812 -25.828125 24.828125 -27.050781 25.078125 -28.34375 C 24.234375 -28.78125 23.507812 -29.097656 22.90625 -29.296875 C 22.300781 -29.503906 21.816406 -29.609375 21.453125 -29.609375 C 17.921875 -29.609375 14.875 -28.164062 12.3125 -25.28125 C 9.75 -22.40625 8.46875 -19.09375 8.46875 -15.34375 C 8.46875 -11.601562 9.128906 -8.800781 10.453125 -6.9375 C 11.773438 -5.070312 13.753906 -4.140625 16.390625 -4.140625 C 18.578125 -4.140625 20.4375 -4.535156 21.96875 -5.328125 C 22.78125 -5.765625 23.925781 -6.628906 25.40625 -7.921875 C 24.675781 -13.953125 24.3125 -18.472656 24.3125 -21.484375 Z M 24.3125 -21.484375 "/></g></g></g><g fill="#f56551" fill-opacity="1"><g transform="translate(370.825407, 90.832061)"><g><path d="M 20.5 -1.78125 C 20.425781 0.3125 19.390625 1.359375 17.390625 1.359375 C 15.722656 1.359375 14.515625 0.378906 13.765625 -1.578125 L 8.546875 -15.4375 L 2.453125 -31.109375 C 2.234375 -31.703125 2.125 -32.226562 2.125 -32.6875 C 2.125 -33.625 2.472656 -34.421875 3.171875 -35.078125 C 3.878906 -35.734375 4.703125 -36.0625 5.640625 -36.0625 C 7.003906 -36.0625 7.984375 -35.367188 8.578125 -33.984375 L 17.25 -10.109375 C 18.957031 -13.753906 21.109375 -19.035156 23.703125 -25.953125 C 24.316406 -27.773438 25.285156 -30.347656 26.609375 -33.671875 C 27.316406 -35.128906 28.316406 -35.859375 29.609375 -35.859375 C 30.546875 -35.859375 31.363281 -35.53125 32.0625 -34.875 C 32.769531 -34.21875 33.125 -33.429688 33.125 -32.515625 C 33.125 -31.648438 31.25 -26.773438 27.5 -17.890625 Z M 20.5 -1.78125 "/></g></g></g><g fill="#f56551" fill-opacity="1"><g transform="translate(404.839279, 90.832061)"><g><path d="M 20.703125 1.578125 C 15.554688 1.578125 11.390625 0.289062 8.203125 -2.28125 C 4.710938 -5.132812 2.96875 -9.125 2.96875 -14.25 C 2.96875 -20.164062 4.40625 -25.128906 7.28125 -29.140625 C 10.394531 -33.503906 14.5625 -35.6875 19.78125 -35.6875 C 23.5625 -35.6875 26.644531 -35.050781 29.03125 -33.78125 C 31.96875 -32.207031 33.4375 -29.796875 33.4375 -26.546875 C 33.4375 -24.265625 32.148438 -22.191406 29.578125 -20.328125 C 28.441406 -19.503906 26.03125 -18.226562 22.34375 -16.5 L 9.296875 -10.3125 C 10.566406 -8.425781 12.148438 -7.003906 14.046875 -6.046875 C 15.953125 -5.085938 18.171875 -4.609375 20.703125 -4.609375 C 22.273438 -4.609375 24.117188 -4.90625 26.234375 -5.5 C 28.921875 -6.25 30.648438 -7.234375 31.421875 -8.453125 C 32.191406 -9.671875 33.023438 -10.28125 33.921875 -10.28125 C 34.710938 -10.28125 35.421875 -9.976562 36.046875 -9.375 C 36.671875 -8.769531 36.984375 -8.070312 36.984375 -7.28125 C 36.984375 -4.75 34.945312 -2.570312 30.875 -0.75 C 27.394531 0.800781 24.003906 1.578125 20.703125 1.578125 Z M 19.78125 -29.546875 C 17 -29.546875 14.6875 -28.46875 12.84375 -26.3125 C 11 -24.164062 9.617188 -20.925781 8.703125 -16.59375 L 19.203125 -21.59375 C 23.316406 -23.59375 26.253906 -25.332031 28.015625 -26.8125 C 26.054688 -28.632812 23.3125 -29.546875 19.78125 -29.546875 Z M 19.78125 -29.546875 "/></g></g></g><g fill="#f56551" fill-opacity="1"><g transform="translate(443.156112, 90.832061)"><g><path d="M 13.421875 -26.84375 L 12.90625 -9.875 C 12.90625 -8.070312 12.816406 -5.429688 12.640625 -1.953125 C 12.410156 0.328125 11.296875 1.46875 9.296875 1.46875 C 7.054688 1.46875 5.9375 0.304688 5.9375 -2.015625 C 5.9375 -4.765625 6.0625 -8.898438 6.3125 -14.421875 C 6.5625 -19.953125 6.6875 -24.09375 6.6875 -26.84375 C 6.6875 -30.445312 6.742188 -34.5625 6.859375 -39.1875 C 6.972656 -43.820312 7.03125 -47.941406 7.03125 -51.546875 C 7.03125 -53.816406 8.148438 -54.953125 10.390625 -54.953125 C 12.640625 -54.953125 13.765625 -53.816406 13.765625 -51.546875 C 13.765625 -47.941406 13.707031 -43.820312 13.59375 -39.1875 C 13.476562 -34.5625 13.421875 -30.445312 13.421875 -26.84375 Z M 13.421875 -26.84375 "/></g></g></g><g fill="#292f36" fill-opacity="1"><g transform="translate(462.321407, 90.832061)"><g><path d="M 23.1875 -16.21875 C 20.09375 -15.90625 14.582031 -15.75 6.65625 -15.75 C 4.75 -15.75 3.796875 -16.632812 3.796875 -18.40625 C 3.796875 -20.1875 4.75 -21.078125 6.65625 -21.078125 C 8.457031 -21.078125 11.15625 -21.15625 14.75 -21.3125 C 18.351562 -21.46875 21.050781 -21.546875 22.84375 -21.546875 C 24.875 -21.546875 25.890625 -20.660156 25.890625 -18.890625 C 25.890625 -17.316406 24.988281 -16.425781 23.1875 -16.21875 Z M 23.1875 -16.21875 "/></g></g></g><g fill="#292f36" fill-opacity="1"><g transform="translate(491.451762, 90.832061)"><g><path d="M 14.109375 -20.046875 C 13.472656 -20.046875 12.082031 -20.195312 9.9375 -20.5 C 9.757812 -17.0625 9.671875 -11.035156 9.671875 -2.421875 C 9.671875 -1.515625 9.375 -0.75 8.78125 -0.125 C 8.1875 0.5 7.445312 0.8125 6.5625 0.8125 C 5.644531 0.8125 4.890625 0.5 4.296875 -0.125 C 3.710938 -0.75 3.421875 -1.515625 3.421875 -2.421875 L 3.421875 -12.46875 C 3.421875 -15.8125 3.625 -20.523438 4.03125 -26.609375 C 4.488281 -33.191406 4.738281 -37.90625 4.78125 -40.75 L 4.78125 -45.46875 C 4.78125 -47.71875 4.914062 -49.351562 5.1875 -50.375 C 5.71875 -52.382812 6.835938 -53.253906 8.546875 -52.984375 C 9.265625 -53.203125 10.296875 -53.367188 11.640625 -53.484375 C 12.984375 -53.597656 14.632812 -53.65625 16.59375 -53.65625 C 20.757812 -53.65625 24.664062 -52.234375 28.3125 -49.390625 C 32.320312 -46.242188 34.328125 -42.460938 34.328125 -38.046875 C 34.328125 -32.398438 32.1875 -27.90625 27.90625 -24.5625 C 24.082031 -21.550781 19.484375 -20.046875 14.109375 -20.046875 Z M 15.8125 -47.171875 C 14.8125 -47.171875 13.914062 -47.144531 13.125 -47.09375 C 12.34375 -47.050781 11.679688 -46.984375 11.140625 -46.890625 L 11.0625 -40.609375 L 10.34375 -27.015625 L 14.109375 -26.578125 C 17.929688 -26.578125 21.148438 -27.546875 23.765625 -29.484375 C 26.640625 -31.597656 28.078125 -34.453125 28.078125 -38.046875 C 28.078125 -40.597656 26.710938 -42.796875 23.984375 -44.640625 C 21.453125 -46.328125 18.726562 -47.171875 15.8125 -47.171875 Z M 15.8125 -47.171875 "/></g></g></g><g fill="#292f36" fill-opacity="1"><g transform="translate(527.856168, 90.832061)"><g><path d="M 13.421875 -26.84375 L 12.90625 -9.875 C 12.90625 -8.070312 12.816406 -5.429688 12.640625 -1.953125 C 12.410156 0.328125 11.296875 1.46875 9.296875 1.46875 C 7.054688 1.46875 5.9375 0.304688 5.9375 -2.015625 C 5.9375 -4.765625 6.0625 -8.898438 6.3125 -14.421875 C 6.5625 -19.953125 6.6875 -24.09375 6.6875 -26.84375 C 6.6875 -30.445312 6.742188 -34.5625 6.859375 -39.1875 C 6.972656 -43.820312 7.03125 -47.941406 7.03125 -51.546875 C 7.03125 -53.816406 8.148438 -54.953125 10.390625 -54.953125 C 12.640625 -54.953125 13.765625 -53.816406 13.765625 -51.546875 C 13.765625 -47.941406 13.707031 -43.820312 13.59375 -39.1875 C 13.476562 -34.5625 13.421875 -30.445312 13.421875 -26.84375 Z M 13.421875 -26.84375 "/></g></g></g><g fill="#292f36" fill-opacity="1"><g transform="translate(547.014585, 90.832061)"><g><path d="M 31.421875 2.25 C 30.992188 2.25 30.207031 1.75 29.0625 0.75 C 28.039062 -0.1875 27.28125 -1.015625 26.78125 -1.734375 C 24.59375 -0.554688 22.664062 0.332031 21 0.9375 C 19.34375 1.539062 17.957031 1.84375 16.84375 1.84375 C 11.507812 1.84375 7.625 0.335938 5.1875 -2.671875 C 2.882812 -5.492188 1.734375 -9.816406 1.734375 -15.640625 C 1.734375 -21.148438 3.628906 -25.863281 7.421875 -29.78125 C 11.210938 -33.695312 15.738281 -35.65625 21 -35.65625 C 22.988281 -35.65625 25.210938 -35.144531 27.671875 -34.125 C 30.765625 -32.84375 32.3125 -31.304688 32.3125 -29.515625 C 32.3125 -28.898438 32.082031 -28.351562 31.625 -27.875 C 31.394531 -27.007812 31.21875 -25.582031 31.09375 -23.59375 C 30.96875 -21.613281 30.894531 -19.078125 30.875 -15.984375 C 30.851562 -13.160156 31.046875 -10.929688 31.453125 -9.296875 C 31.679688 -8.285156 32.398438 -6.28125 33.609375 -3.28125 C 33.765625 -2.875 34.023438 -2.269531 34.390625 -1.46875 L 34.59375 -0.890625 C 34.59375 0.0234375 34.273438 0.773438 33.640625 1.359375 C 33.003906 1.953125 32.265625 2.25 31.421875 2.25 Z M 24.3125 -21.484375 C 24.3125 -22.460938 24.375 -23.523438 24.5 -24.671875 C 24.632812 -25.828125 24.828125 -27.050781 25.078125 -28.34375 C 24.234375 -28.78125 23.507812 -29.097656 22.90625 -29.296875 C 22.300781 -29.503906 21.816406 -29.609375 21.453125 -29.609375 C 17.921875 -29.609375 14.875 -28.164062 12.3125 -25.28125 C 9.75 -22.40625 8.46875 -19.09375 8.46875 -15.34375 C 8.46875 -11.601562 9.128906 -8.800781 10.453125 -6.9375 C 11.773438 -5.070312 13.753906 -4.140625 16.390625 -4.140625 C 18.578125 -4.140625 20.4375 -4.535156 21.96875 -5.328125 C 22.78125 -5.765625 23.925781 -6.628906 25.40625 -7.921875 C 24.675781 -13.953125 24.3125 -18.472656 24.3125 -21.484375 Z M 24.3125 -21.484375 "/></g></g></g><g fill="#292f36" fill-opacity="1"><g transform="translate(582.804282, 90.832061)"><g><path d="M 30.953125 2.421875 C 28.992188 2.421875 27.890625 1.351562 27.640625 -0.78125 L 26.671875 -8.265625 C 26.359375 -10.929688 26.203125 -13.425781 26.203125 -15.75 C 26.203125 -16.382812 26.238281 -17.460938 26.3125 -18.984375 C 26.394531 -20.515625 26.4375 -21.597656 26.4375 -22.234375 C 26.4375 -27.148438 25.523438 -29.609375 23.703125 -29.609375 C 21.148438 -29.609375 18.710938 -28.097656 16.390625 -25.078125 C 14.296875 -22.316406 12.660156 -18.832031 11.484375 -14.625 C 11.429688 -13.726562 11.328125 -12.609375 11.171875 -11.265625 C 11.035156 -10.128906 10.96875 -9.023438 10.96875 -7.953125 C 10.96875 -7.273438 11.035156 -6.25 11.171875 -4.875 C 11.304688 -3.507812 11.375 -2.488281 11.375 -1.8125 C 11.375 -0.78125 11.0625 0.0507812 10.4375 0.6875 C 9.8125 1.320312 9.007812 1.640625 8.03125 1.640625 C 7.03125 1.640625 6.21875 1.320312 5.59375 0.6875 C 4.976562 0.0507812 4.671875 -0.78125 4.671875 -1.8125 C 4.671875 -2.488281 4.597656 -3.507812 4.453125 -4.875 C 4.304688 -6.25 4.234375 -7.273438 4.234375 -7.953125 C 4.234375 -10.304688 4.394531 -13.554688 4.71875 -17.703125 C 5.050781 -21.859375 5.21875 -25.113281 5.21875 -27.46875 C 5.21875 -28.195312 5.175781 -29.273438 5.09375 -30.703125 C 5.019531 -32.140625 4.984375 -33.222656 4.984375 -33.953125 C 4.984375 -34.929688 5.304688 -35.734375 5.953125 -36.359375 C 6.609375 -36.984375 7.414062 -37.296875 8.375 -37.296875 C 10.46875 -37.296875 11.613281 -35.816406 11.8125 -32.859375 L 11.921875 -28.859375 C 15.742188 -33.960938 19.671875 -36.515625 23.703125 -36.515625 C 27.347656 -36.515625 29.890625 -34.910156 31.328125 -31.703125 C 32.304688 -29.554688 32.835938 -26.390625 32.921875 -22.203125 L 32.921875 -18.75 L 32.890625 -15.578125 C 32.890625 -13.679688 33.132812 -11.234375 33.625 -8.234375 C 34.113281 -5.242188 34.359375 -2.816406 34.359375 -0.953125 C 34.359375 0.046875 34.035156 0.859375 33.390625 1.484375 C 32.742188 2.109375 31.929688 2.421875 30.953125 2.421875 Z M 30.953125 2.421875 "/></g></g></g><g fill="#292f36" fill-opacity="1"><g transform="translate(619.413591, 90.832061)"><g><path d="M 30.953125 2.421875 C 28.992188 2.421875 27.890625 1.351562 27.640625 -0.78125 L 26.671875 -8.265625 C 26.359375 -10.929688 26.203125 -13.425781 26.203125 -15.75 C 26.203125 -16.382812 26.238281 -17.460938 26.3125 -18.984375 C 26.394531 -20.515625 26.4375 -21.597656 26.4375 -22.234375 C 26.4375 -27.148438 25.523438 -29.609375 23.703125 -29.609375 C 21.148438 -29.609375 18.710938 -28.097656 16.390625 -25.078125 C 14.296875 -22.316406 12.660156 -18.832031 11.484375 -14.625 C 11.429688 -13.726562 11.328125 -12.609375 11.171875 -11.265625 C 11.035156 -10.128906 10.96875 -9.023438 10.96875 -7.953125 C 10.96875 -7.273438 11.035156 -6.25 11.171875 -4.875 C 11.304688 -3.507812 11.375 -2.488281 11.375 -1.8125 C 11.375 -0.78125 11.0625 0.0507812 10.4375 0.6875 C 9.8125 1.320312 9.007812 1.640625 8.03125 1.640625 C 7.03125 1.640625 6.21875 1.320312 5.59375 0.6875 C 4.976562 0.0507812 4.671875 -0.78125 4.671875 -1.8125 C 4.671875 -2.488281 4.597656 -3.507812 4.453125 -4.875 C 4.304688 -6.25 4.234375 -7.273438 4.234375 -7.953125 C 4.234375 -10.304688 4.394531 -13.554688 4.71875 -17.703125 C 5.050781 -21.859375 5.21875 -25.113281 5.21875 -27.46875 C 5.21875 -28.195312 5.175781 -29.273438 5.09375 -30.703125 C 5.019531 -32.140625 4.984375 -33.222656 4.984375 -33.953125 C 4.984375 -34.929688 5.304688 -35.734375 5.953125 -36.359375 C 6.609375 -36.984375 7.414062 -37.296875 8.375 -37.296875 C 10.46875 -37.296875 11.613281 -35.816406 11.8125 -32.859375 L 11.921875 -28.859375 C 15.742188 -33.960938 19.671875 -36.515625 23.703125 -36.515625 C 27.347656 -36.515625 29.890625 -34.910156 31.328125 -31.703125 C 32.304688 -29.554688 32.835938 -26.390625 32.921875 -22.203125 L 32.921875 -18.75 L 32.890625 -15.578125 C 32.890625 -13.679688 33.132812 -11.234375 33.625 -8.234375 C 34.113281 -5.242188 34.359375 -2.816406 34.359375 -0.953125 C 34.359375 0.046875 34.035156 0.859375 33.390625 1.484375 C 32.742188 2.109375 31.929688 2.421875 30.953125 2.421875 Z M 30.953125 2.421875 "/></g></g></g><g fill="#292f36" fill-opacity="1"><g transform="translate(656.022899, 90.832061)"><g><path d="M 20.703125 1.578125 C 15.554688 1.578125 11.390625 0.289062 8.203125 -2.28125 C 4.710938 -5.132812 2.96875 -9.125 2.96875 -14.25 C 2.96875 -20.164062 4.40625 -25.128906 7.28125 -29.140625 C 10.394531 -33.503906 14.5625 -35.6875 19.78125 -35.6875 C 23.5625 -35.6875 26.644531 -35.050781 29.03125 -33.78125 C 31.96875 -32.207031 33.4375 -29.796875 33.4375 -26.546875 C 33.4375 -24.265625 32.148438 -22.191406 29.578125 -20.328125 C 28.441406 -19.503906 26.03125 -18.226562 22.34375 -16.5 L 9.296875 -10.3125 C 10.566406 -8.425781 12.148438 -7.003906 14.046875 -6.046875 C 15.953125 -5.085938 18.171875 -4.609375 20.703125 -4.609375 C 22.273438 -4.609375 24.117188 -4.90625 26.234375 -5.5 C 28.921875 -6.25 30.648438 -7.234375 31.421875 -8.453125 C 32.191406 -9.671875 33.023438 -10.28125 33.921875 -10.28125 C 34.710938 -10.28125 35.421875 -9.976562 36.046875 -9.375 C 36.671875 -8.769531 36.984375 -8.070312 36.984375 -7.28125 C 36.984375 -4.75 34.945312 -2.570312 30.875 -0.75 C 27.394531 0.800781 24.003906 1.578125 20.703125 1.578125 Z M 19.78125 -29.546875 C 17 -29.546875 14.6875 -28.46875 12.84375 -26.3125 C 11 -24.164062 9.617188 -20.925781 8.703125 -16.59375 L 19.203125 -21.59375 C 23.316406 -23.59375 26.253906 -25.332031 28.015625 -26.8125 C 26.054688 -28.632812 23.3125 -29.546875 19.78125 -29.546875 Z M 19.78125 -29.546875 "/></g></g></g><g fill="#292f36" fill-opacity="1"><g transform="translate(694.339731, 90.832061)"><g><path d="M 31.328125 -25.234375 C 31.160156 -22.390625 30.019531 -20.96875 27.90625 -20.96875 C 25.945312 -20.96875 24.96875 -22.097656 24.96875 -24.359375 C 24.96875 -24.785156 24.929688 -25.582031 24.859375 -26.75 L 24.765625 -29.609375 C 21.160156 -29.179688 18.28125 -28.171875 16.125 -26.578125 C 14.09375 -25.097656 12.40625 -22.863281 11.0625 -19.875 L 11.140625 -1.15625 C 11.140625 1.132812 10.007812 2.28125 7.75 2.28125 C 5.75 2.28125 4.75 1.132812 4.75 -1.15625 L 4.75 -25.140625 C 4.75 -25.890625 4.773438 -27.015625 4.828125 -28.515625 C 4.890625 -30.023438 4.921875 -31.15625 4.921875 -31.90625 C 4.921875 -34.207031 5.921875 -35.359375 7.921875 -35.359375 C 10.148438 -35.359375 11.28125 -33.46875 11.3125 -29.6875 C 15.675781 -33.894531 20.523438 -36 25.859375 -36 C 27.703125 -36 29.078125 -35.300781 29.984375 -33.90625 C 30.898438 -32.519531 31.359375 -30.429688 31.359375 -27.640625 C 31.359375 -26.453125 31.347656 -25.648438 31.328125 -25.234375 Z M 31.328125 -25.234375 "/></g></g></g></svg>