<svg xmlns="http://www.w3.org/2000/svg" xmlns:xlink="http://www.w3.org/1999/xlink" width="500" zoomAndPan="magnify" viewBox="0 0 375 374.999991" height="500" preserveAspectRatio="xMidYMid meet" version="1.0"><defs><clipPath id="589b07d8ac"><path d="M 37 18.59375 L 337 18.59375 L 337 318 L 37 318 Z M 37 18.59375 " clip-rule="nonzero"/></clipPath><clipPath id="400fec80dd"><path d="M 2.917969 106 L 29 106 L 29 189 L 2.917969 189 Z M 2.917969 106 " clip-rule="nonzero"/></clipPath><clipPath id="c8f4c0905a"><path d="M 346 106 L 371.917969 106 L 371.917969 189 L 346 189 Z M 346 106 " clip-rule="nonzero"/></clipPath></defs><path fill="#f59a2e" d="M 71.53125 328.703125 L 71.53125 348.652344 C 71.53125 357.125 78.394531 363.996094 86.863281 363.996094 L 102.195312 363.996094 C 110.664062 363.996094 117.527344 357.125 117.527344 348.652344 L 117.527344 328.703125 Z M 71.53125 328.703125 " fill-opacity="1" fill-rule="nonzero"/><path fill="#f59a2e" d="M 257.449219 328.703125 L 257.449219 348.652344 C 257.449219 357.125 264.3125 363.996094 272.78125 363.996094 L 288.113281 363.996094 C 296.582031 363.996094 303.445312 357.125 303.445312 348.652344 L 303.445312 328.703125 Z M 257.449219 328.703125 " fill-opacity="1" fill-rule="nonzero"/><g clip-path="url(#589b07d8ac)"><path fill="#f59a2e" d="M 282.632812 18.796875 L 92.34375 18.796875 C 62.324219 18.796875 37.988281 43.148438 37.988281 73.191406 L 37.988281 297.550781 C 37.988281 308.535156 46.898438 317.449219 57.875 317.449219 L 317.101562 317.449219 C 328.082031 317.449219 336.992188 308.535156 336.992188 297.550781 L 336.992188 73.191406 C 336.992188 43.148438 312.65625 18.796875 282.632812 18.796875 Z M 86.542969 280.113281 C 74.96875 280.113281 65.585938 270.726562 65.585938 259.144531 C 65.585938 247.5625 74.96875 238.175781 86.542969 238.175781 C 98.117188 238.175781 107.496094 247.5625 107.496094 259.144531 C 107.496094 270.726562 98.117188 280.113281 86.542969 280.113281 Z M 252.566406 279.167969 L 129.894531 279.167969 C 125.898438 279.167969 122.664062 275.929688 122.664062 271.929688 C 122.664062 267.933594 125.898438 264.691406 129.894531 264.691406 L 252.566406 264.691406 C 256.558594 264.691406 259.796875 267.933594 259.796875 271.929688 C 259.796875 275.929688 256.558594 279.167969 252.566406 279.167969 Z M 252.566406 253.59375 L 129.894531 253.59375 C 125.898438 253.59375 122.664062 250.355469 122.664062 246.359375 C 122.664062 242.359375 125.898438 239.121094 129.894531 239.121094 L 252.566406 239.121094 C 256.558594 239.121094 259.796875 242.359375 259.796875 246.359375 C 259.796875 250.355469 256.558594 253.59375 252.566406 253.59375 Z M 288.433594 280.113281 C 276.863281 280.113281 267.480469 270.726562 267.480469 259.144531 C 267.480469 247.5625 276.863281 238.175781 288.433594 238.175781 C 300.007812 238.175781 309.390625 247.5625 309.390625 259.144531 C 309.390625 270.726562 300.007812 280.113281 288.433594 280.113281 Z M 309.390625 162.359375 C 309.390625 182.753906 292.867188 199.289062 272.484375 199.289062 L 102.492188 199.289062 C 82.109375 199.289062 65.585938 182.753906 65.585938 162.359375 L 65.585938 81.78125 C 65.585938 61.386719 82.109375 44.851562 102.492188 44.851562 L 272.484375 44.851562 C 292.867188 44.851562 309.390625 61.386719 309.390625 81.78125 Z M 309.390625 162.359375 " fill-opacity="1" fill-rule="nonzero"/></g><path fill="#f59a2e" d="M 219.902344 188.050781 C 220.308594 176.691406 229.613281 167.601562 241.0625 167.601562 C 252.511719 167.601562 261.816406 176.691406 262.226562 188.050781 L 277.589844 188.050781 C 277.179688 168.207031 260.988281 152.25 241.0625 152.25 C 221.136719 152.25 204.949219 168.210938 204.539062 188.050781 Z M 219.902344 188.050781 " fill-opacity="1" fill-rule="nonzero"/><g clip-path="url(#400fec80dd)"><path fill="#f59a2e" d="M 28.019531 175.519531 C 28.019531 182.441406 22.414062 188.050781 15.5 188.050781 C 8.582031 188.050781 2.976562 182.441406 2.976562 175.519531 L 2.976562 118.746094 C 2.976562 111.828125 8.582031 106.214844 15.5 106.214844 C 22.414062 106.214844 28.019531 111.828125 28.019531 118.746094 Z M 28.019531 175.519531 " fill-opacity="1" fill-rule="nonzero"/></g><g clip-path="url(#c8f4c0905a)"><path fill="#f59a2e" d="M 372 175.519531 C 372 182.441406 366.394531 188.050781 359.480469 188.050781 C 352.5625 188.050781 346.957031 182.441406 346.957031 175.519531 L 346.957031 118.746094 C 346.957031 111.828125 352.5625 106.214844 359.480469 106.214844 C 366.394531 106.214844 372 111.828125 372 118.746094 Z M 372 175.519531 " fill-opacity="1" fill-rule="nonzero"/></g></svg>